# AST/ASF file generated using VICON BodyLanguage
# -----------------------------------------------
:version 1.10
:name VICON
:units
  mass 1.0
  length 0.45
  angle deg
:documentation
   .ast/.asf automatically generated from VICON data using
   VICON BodyBuilder and BodyLanguage model FoxedUp or BRILLIANT.MOD
:root
   order TX TY TZ RX RY RZ
   axis XYZ
   position 0 0 0  
   orientation 0 0 0 
:bonedata
  begin
     id 1 
     name lhipjoint
     direction 0.547975 -0.797114 0.253638 
     length 2.36201 
     axis 0 0 0  XYZ
  end
  begin
     id 2 
     name lfemur
     direction 0.34202 -0.939693 0  
     length 7.69075  
     axis 0 0 20  XYZ
    dof rx ry rz
    limits (-160.0 20.0)
           (-70.0 70.0)
           (-60.0 70.0)
  end
  begin
     id 3 
     name ltibia
     direction 0.34202 -0.939693 0   
     length 7.91399   
     axis 0 0 20   XYZ
    dof rx
    limits (-10.0 170.0)
  end
  begin
     id 4 
     name lfoot
     direction 0.0705293 -0.193778 0.978507   
     length 2.13618   
     axis -90 7.62852e-016 20   XYZ
    dof rx rz
    limits (-45.0 90.0)
           (-70.0 20.0)
  end
  begin
     id 5 
     name ltoes
     direction 1.53592e-011 -4.21925e-011 1   
     length 1.07518   
     axis -90 7.62852e-016 20   XYZ
    dof rx
    limits (-90.0 20.0)
  end
  begin
     id 6 
     name rhipjoint
     direction -0.57 -0.782963 0.249136   
     length 2.4047  
     axis 0 0 0  XYZ 
  end
  begin
     id 7 
     name rfemur
     direction -0.34202 -0.939693 0   
     length 7.51486   
     axis 0 0 -20   XYZ
    dof rx ry rz
    limits (-160.0 20.0)
           (-70.0 70.0)
           (-70.0 60.0)
  end
  begin
     id 8 
     name rtibia
     direction -0.34202 -0.939693 0   
     length 8.08317   
     axis 0 0 -20   XYZ
    dof rx
    limits (-10.0 170.0)
 end
 begin
     id 9 
     name rfoot
     direction -0.104954 -0.281256 0.953876   
     length 2.30343  
     axis -90 -7.62852e-016 -20   XYZ
    dof rx rz
    limits (-45.0 90.0)
           (-20.0 70.0)
  end
  begin
     id 10 
     name rtoes
     direction -1.53556e-011 -4.21922e-011 1   
     length 1.14803   
     axis -90 -7.62852e-016 -20   XYZ
    dof rx
    limits (-90.0 20.0)
  end
  begin
     id 11 
     name lowerback
     direction -0.0152855 0.99353 -0.11254   
     length 2.05311   
     axis 0 0 0   XYZ
    dof rx ry rz
    limits (-20.0 45.0)
           (-30.0 30.0)
           (-30.0 30.0)
  end
  begin
     id 12 
     name upperback
     direction -0.00157509 0.999443 -0.033332   
     length 2.06353   
     axis 0 0 0   XYZ
    dof rx ry rz
    limits (-20.0 45.0)
           (-30.0 30.0)
           (-30.0 30.0)
  end
  begin
     id 13 
     name thorax
     direction 0.00577788 0.999804 0.0189484   
     length 2.08472   
     axis 0 0 0   XYZ
    dof rx ry rz
    limits (-20.0 45.0)
           (-30.0 30.0)
           (-30.0 30.0)
  end
  begin
     id 14 
     name lowerneck
     direction -1.09301e-005 0.994719 0.10264   
     length 1.76249   
     axis 0 0 0   XYZ
    dof rx ry rz
    limits (-20.0 45.0)
           (-30.0 30.0)
           (-30.0 30.0)
  end
  begin
     id 15 
     name upperneck
     direction 0.0495018 0.988526 -0.142706   
     length 1.77897   
     axis 0 0 0   XYZ
    dof rx ry rz
    limits (-20.0 45.0)
           (-30.0 30.0)
           (-30.0 30.0)
  end
  begin
     id 16
     name head
     direction 0.0142736 0.998114 -0.0597101  
     length 1.78934  
     axis 0 0 0   XYZ
    dof rx ry rz
    limits (-20.0 45.0)
           (-30.0 30.0)
           (-30.0 30.0)
  end
  begin
     id 17 
     name lclavicle
     direction 0.918111 0.396107 -0.0130883  
     length 3.37276  
     axis 0 0 0   XYZ
    dof ry rz
    limits (-20.0 10.0)
           (0.0 20.0)
  end
  begin
     id 18 
     name lhumerus
     direction 1 -4.48975e-011 -3.26108e-027   
     length 5.34298   
     axis 180 -30 -90   XYZ
    dof rx ry rz
    limits (-60.0 90.0)
           (-90.0 90.0)
           (-90.0 90.0)
  end
  begin
     id 19
     name lradius
     direction 1 -4.48964e-011 -8.84413e-028   
     length 3.67262   
     axis 180 -30 -90   XYZ
    dof rx
    limits (-10.0 170.0)
  end
  begin
     id 20
     name lwrist
     direction 1 -4.48991e-011 -1.24264e-027   
     length 1.83631   
     axis -2.17013e-015 90 90   XYZ
    dof ry
    limits (-180.0 0.0)
 end
  begin
     id 21 
     name lhand
     direction 1 -4.48855e-011 -2.48528e-027   
     length 0.599298   
     axis 1.58582e-015 90 90   XYZ
    dof rx rz
    limits (-90.0 90.0)
           (-45.0 45.0)
  end
  begin
     id 22 
     name lfingers
     direction 1 -4.48811e-011 -4.97056e-027   
     length 0.48317   
     axis 3.17164e-015 90 90   XYZ
    dof rx
    limits (0.0 90.0)
  end
  begin
     id 23
     name lthumb
     direction 0.707107 -6.34882e-011 0.707107   
     length 0.693738   
     axis -90 45 2.85299e-015   XYZ
    dof rx rz
    limits (-45.0 45.0)
           (-45.0 45.0)
  end
  begin
     id 24 
     name rclavicle
     direction -0.920511 0.384752 -0.0680135   
     length 3.43787  
     axis 0 0 0   XYZ 
    dof ry rz
    limits (-10.0 20.0)
           (-20.0 0.0)
  end
  begin
     id 25 
     name rhumerus
     direction -0.999976 -0.00330524 0.00603274  
     length 5.5498   
     axis 180 30 90   XYZ
    dof rx ry rz
    limits (-90.0 60.0)
           (-90.0 90.0)
           (-90.0 90.0)
  end
  begin
     id 26 
     name rradius
     direction -1 -4.48967e-011 8.62438e-027   
     length 3.69401   
     axis 180 30 90   XYZ
    dof rx
    limits (-10.0 170.0)
  end
  begin
     id 27 
     name rwrist
     direction -1 -4.4897e-011 9.54866e-027   
     length 1.84701   
     axis -7.69462e-015 -90 -90   XYZ
    dof ry
    limits (-180.0 0.0)
  end
  begin
     id 28
     name rhand
     direction -1 -4.48982e-011 1.90973e-026   
     length 0.638113   
     axis -1.21857e-014 -90 -90   XYZ
    dof rx rz
    limits (-90.0 90.0)
           (-45.0 45.0)
  end
  begin
     id 29
     name rfingers
     direction -1 -4.48936e-011 3.81946e-026   
     length 0.514463   
     axis -2.43714e-014 -90 -90   XYZ
    dof rx
    limits (0.0 90.0)
  end
  begin
     id 30
     name rthumb
     direction -0.707107 -6.34942e-011 0.707107   
     length 0.738669   
     axis -90 -45 -2.85299e-015   XYZ
    dof rx rz
    limits (-45.0 45.0)
           (-45.0 45.0)
  end
:hierarchy
  begin
    root lhipjoint rhipjoint lowerback
    lhipjoint lfemur
    lfemur ltibia
    ltibia lfoot
    lfoot ltoes
    rhipjoint rfemur
    rfemur rtibia
    rtibia rfoot
    rfoot rtoes
    lowerback upperback
    upperback thorax
    thorax lowerneck lclavicle rclavicle
    lowerneck upperneck
    upperneck head
    lclavicle lhumerus
    lhumerus lradius
    lradius lwrist
    lwrist lhand lthumb
    lhand lfingers
    rclavicle rhumerus
    rhumerus rradius
    rradius rwrist
    rwrist rhand rthumb
    rhand rfingers
  end

#!OML:ASF F:\twosubjects\two\Thursday\Session 1\Rory.ASF
:FULLY-SPECIFIED
:DEGREES
129
root -1.37603 18.3844 2.22099 3.09671 7.65328 -2.7909
lowerback 2.47072 4.14532 -1.17686
upperback 2.57373 5.52398 -1.64129
thorax 1.31247 2.75986 -1.09423
lowerneck 4.32617 19.2451 13.2959
upperneck 6.50629 27.5333 -16.3715
head 5.3865 13.6698 -5.14305
rclavicle -7.95139e-016 4.77083e-015
rhumerus -33.3076 -13.7398 -78.743
rradius 35.2692
rwrist 17.9665
rhand -21.0967 24.7269
rfingers 7.12502
rthumb 5.28097 -5.18734
lclavicle -7.95139e-016 4.77083e-015
lhumerus -27.8607 13.8045 83.8642
lradius 30.1596
lwrist -18.7916
lhand -14.4832 31.6064
lfingers 7.12502
lthumb 11.6631 61.2617
rfemur 9.61691 0.482424 18.5347
rtibia 16.156
rfoot -10.1932 -10.5638
rtoes -31.805
lfemur -26.7472 -3.68325 -14.9747
ltibia 22.1619
lfoot -3.67771 0.857041
ltoes -7.57757
130
root -1.31311 18.402 2.39036 3.03549 7.71182 -2.9576
lowerback 2.2258 4.21409 -0.95546
upperback 2.51811 5.62283 -1.58408
thorax 1.4084 2.81202 -1.14121
lowerneck 4.19186 19.3966 13.2196
upperneck 6.94142 27.7538 -16.0453
head 5.51589 13.7617 -4.98177
rclavicle -2.70347e-014 -2.3059e-014
rhumerus -33.8757 -13.4992 -78.5735
rradius 35.7413
rwrist 17.5174
rhand -20.9693 24.4643
rfingers 7.12502
rthumb 5.40397 -5.44675
lclavicle -2.70347e-014 -2.3059e-014
lhumerus -27.9145 14.0442 83.5644
lradius 28.9896
lwrist -19.105
lhand -14.174 31.6432
lfingers 7.12502
lthumb 11.9613 61.2814
rfemur 9.68328 0.648055 18.5734
rtibia 17.0287
rfoot -9.55248 -10.2891
rtoes -32.4194
lfemur -26.2098 -3.99434 -15.0029
ltibia 21.6312
lfoot -1.44357 -0.320218
ltoes -0.807685
131
root -1.2487 18.4119 2.55667 2.95797 7.83174 -2.85831
lowerback 2.09706 4.27416 -0.990798
upperback 2.46974 5.70414 -1.55602
thorax 1.42535 2.85166 -1.08574
lowerneck 4.41359 19.5625 13.2336
upperneck 7.00591 28.0325 -16.1537
head 5.56016 13.9047 -4.99096
rclavicle 5.04913e-014 -1.43125e-014
rhumerus -34.371 -13.4202 -78.2523
rradius 36.0028
rwrist 17.0885
rhand -21.1417 24.6741
rfingers 7.12502
rthumb 5.23749 -5.24119
lclavicle 5.04913e-014 -1.43125e-014
lhumerus -28.2142 14.2793 83.3881
lradius 28.3595
lwrist -19.4113
lhand -13.9548 31.8661
lfingers 7.12502
lthumb 12.1727 61.492
rfemur 9.92605 0.58943 18.2636
rtibia 17.7388
rfoot -8.81025 -9.84986
rtoes -32.417
lfemur -25.6636 -4.82459 -15.2103
ltibia 21.5609
lfoot 0.0967738 -0.744158
ltoes 6.89643
132
root -1.1795 18.4206 2.7217 2.9458 8.09957 -2.63513
lowerback 1.94212 4.2982 -1.14751
upperback 2.40804 5.73695 -1.55476
thorax 1.43342 2.86534 -0.989076
lowerneck 4.82262 19.6724 13.4595
upperneck 6.96839 28.2827 -16.5437
head 5.61227 14.0454 -5.12435
rclavicle -2.69353e-014 -2.38542e-014
rhumerus -34.9076 -13.2568 -77.9706
rradius 36.2795
rwrist 16.5416
rhand -21.0639 24.7362
rfingers 7.12502
rthumb 5.31265 -5.1772
lclavicle -2.69353e-014 -2.38542e-014
lhumerus -28.4775 14.887 83.1289
lradius 27.6064
lwrist -20.2463
lhand -13.9751 31.6189
lfingers 7.12502
lthumb 12.1531 61.2459
rfemur 10.0316 0.447375 17.8071
rtibia 18.604
rfoot -8.10096 -9.44298
rtoes -33.2301
lfemur -25.1149 -5.81264 -15.5741
ltibia 21.9464
lfoot -0.286784 -0.265674
ltoes 6.8038
133
root -1.10804 18.4365 2.88695 2.99012 8.48793 -2.37534
lowerback 1.77377 4.2034 -1.35393
upperback 2.3165 5.61079 -1.536
thorax 1.41035 2.79873 -0.846829
lowerneck 5.2714 19.8208 13.4268
upperneck 6.81971 28.5355 -16.7452
head 5.55992 14.1931 -5.19246
rclavicle -2.24627e-014 -2.14687e-014
rhumerus -35.4143 -12.8761 -77.7887
rradius 36.5412
rwrist 16.2451
rhand -20.6966 24.6069
rfingers 7.12502
rthumb 5.66731 -5.29732
lclavicle -2.24627e-014 -2.14687e-014
lhumerus -28.4873 15.5747 82.8017
lradius 26.2229
lwrist -20.8808
lhand -13.6732 31.2091
lfingers 7.12502
lthumb 12.4442 60.8186
rfemur 9.75034 0.367237 17.3377
rtibia 20.0197
rfoot -7.26637 -9.13039
rtoes -33.7173
lfemur -24.7024 -6.86729 -15.9851
ltibia 22.531
lfoot -1.29597 0.740639
ltoes 3.35476
134
root -1.04538 18.4441 3.05042 2.93454 8.87684 -1.87098
lowerback 1.87821 4.11318 -1.82916
upperback 2.22154 5.48187 -1.63491
thorax 1.21932 2.72908 -0.698993
lowerneck 5.4063 19.9805 13.2417
upperneck 6.82569 28.7466 -16.6114
head 5.52539 14.302 -5.12236
rclavicle 5.31749e-014 -1.51076e-014
rhumerus -35.8372 -12.9516 -77.5717
rradius 36.5729
rwrist 16.3781
rhand -20.5858 24.4144
rfingers 7.12502
rthumb 5.77426 -5.48697
lclavicle 5.31749e-014 -1.51076e-014
lhumerus -28.975 16.1398 82.3556
lradius 25.8316
lwrist -21.3826
lhand -13.2978 31.4292
lfingers 7.12502
lthumb 12.8061 61.0164
rfemur 9.41988 0.248515 16.6069
rtibia 21.8254
rfoot -6.36383 -8.72852
rtoes -34.1494
lfemur -24.229 -7.75526 -16.689
ltibia 23.0506
lfoot -2.00726 1.26159
ltoes 1.57239
135
root -0.991035 18.4435 3.20097 2.77884 9.37413 -1.01233
lowerback 2.30728 4.07199 -2.74093
upperback 2.17946 5.39902 -1.78102
thorax 0.868186 2.67935 -0.382947
lowerneck 5.47077 20.0547 13.0787
upperneck 6.87608 28.8566 -16.5808
head 5.51959 14.3554 -5.08825
rclavicle 3.03147e-014 9.54166e-015
rhumerus -36.2587 -13.1801 -77.1768
rradius 36.5304
rwrist 16.1949
rhand -20.8091 24.4225
rfingers 7.12502
rthumb 5.55868 -5.48462
lclavicle 3.03147e-014 9.54166e-015
lhumerus -29.7677 16.7757 81.9214
lradius 26.2449
lwrist -22.0893
lhand -12.8439 31.9132
lfingers 7.12502
lthumb 13.2436 61.4725
rfemur 9.07831 -0.0332408 15.4984
rtibia 23.9633
rfoot -5.48056 -8.21292
rtoes -33.5665
lfemur -23.5771 -8.19831 -17.8994
ltibia 23.3676
lfoot -2.49931 0.952632
ltoes 1.26136
136
root -0.942327 18.4494 3.33703 2.68796 10.0668 -0.508523
lowerback 2.7296 4.00133 -3.2796
upperback 2.17083 5.27543 -1.81254
thorax 0.58092 2.6145 -0.150446
lowerneck 5.50793 20.111 12.8316
upperneck 6.82232 28.92 -16.5695
head 5.46972 14.3866 -5.06066
rclavicle -2.27608e-014 2.54444e-014
rhumerus -36.6593 -13.5343 -76.7023
rradius 36.5425
rwrist 16.0524
rhand -21.2205 25.1434
rfingers 7.12502
rthumb 5.16144 -4.77374
lclavicle -2.27608e-014 2.54444e-014
lhumerus -29.7137 17.5576 81.5927
lradius 25.4035
lwrist -22.8269
lhand -12.9379 31.8174
lfingers 7.12502
lthumb 13.153 61.3826
rfemur 8.38649 -0.253991 14.9166
rtibia 26.3845
rfoot -4.5738 -8.08997
rtoes -31.1971
lfemur -22.9816 -8.35692 -18.7446
ltibia 23.3846
lfoot -2.77292 0.463282
ltoes 2.19821
137
root -0.901252 18.4542 3.47553 2.61783 10.6197 -0.0831705
lowerback 3.1132 3.98413 -3.7567
upperback 2.15688 5.22139 -1.94553
thorax 0.325046 2.58667 -0.0530091
lowerneck 5.1252 20.1381 12.7745
upperneck 7.12744 28.935 -16.2805
head 5.57364 14.3674 -4.91961
rclavicle 9.30312e-014 -1.82882e-014
rhumerus -37.0815 -14.2705 -76.3895
rradius 36.6188
rwrist 16.3749
rhand -21.3041 25.421
rfingers 7.12502
rthumb 5.08068 -4.49808
lclavicle 9.30312e-014 -1.82882e-014
lhumerus -29.331 18.0526 81.1471
lradius 24.0805
lwrist -23.6921
lhand -12.739 31.8271
lfingers 7.12502
lthumb 13.3448 61.3798
rfemur 7.4938 -0.347906 14.4683
rtibia 28.9097
rfoot -3.34345 -8.06913
rtoes -29.4555
lfemur -22.3528 -8.18573 -19.4875
ltibia 23.282
lfoot -2.96731 -0.018683
ltoes 3.66855
138
root -0.856375 18.457 3.63356 2.53557 10.9939 0.694982
lowerback 3.22293 4.01902 -4.61769
upperback 2.23207 5.24337 -2.19173
thorax 0.289672 2.59036 0.161341
lowerneck 4.87135 20.1308 12.9468
upperneck 7.29984 28.9345 -16.2348
head 5.68457 14.3512 -4.88555
rclavicle 1.71949e-014 -2.54444e-014
rhumerus -37.4835 -14.8813 -76.1973
rradius 36.575
rwrist 16.6316
rhand -21.2701 25.0991
rfingers 7.12502
rthumb 5.11353 -4.81916
lclavicle 1.71949e-014 -2.54444e-014
lhumerus -29.2978 17.9665 80.7582
lradius 23.4303
lwrist -24.1891
lhand -11.9344 32.3288
lfingers 7.12502
lthumb 14.1202 61.829
rfemur 6.69549 -0.493692 13.5112
rtibia 31.3737
rfoot -1.63709 -7.80101
rtoes -28.2729
lfemur -21.6006 -7.85099 -20.6499
ltibia 23.3168
lfoot -3.29626 -0.676707
ltoes 4.40204
139
root -0.808902 18.4634 3.78861 2.54685 11.3132 0.869186
lowerback 3.08315 4.12441 -4.77185
upperback 2.26571 5.39162 -2.25945
thorax 0.389918 2.66127 0.183285
lowerneck 5.07778 20.1058 13.0652
upperneck 7.03935 28.9148 -16.4581
head 5.6196 14.3593 -4.99276
rclavicle -3.50855e-014 1.19271e-014
rhumerus -38.0012 -15.7583 -75.7403
rradius 36.4604
rwrist 16.9532
rhand -21.4583 25.226
rfingers 7.12502
rthumb 4.93187 -4.69663
lclavicle -3.50855e-014 1.19271e-014
lhumerus -29.3427 18.1727 80.423
lradius 23.0514
lwrist -24.9248
lhand -12.1012 32.0203
lfingers 7.12502
lthumb 13.9595 61.5316
rfemur 5.6226 -0.569938 13.2115
rtibia 33.7249
rfoot 0.271928 -7.78966
rtoes -26.1982
lfemur -21.1308 -7.63178 -21.0708
ltibia 23.4701
lfoot -3.66549 -1.22087
ltoes 3.35078
140
root -0.766335 18.4663 3.92662 2.59057 11.553 0.48269
lowerback 2.99362 4.22647 -4.37847
upperback 2.21942 5.54023 -2.13743
thorax 0.410164 2.73913 0.0923821
lowerneck 5.32815 20.0792 12.9971
upperneck 6.79236 28.8806 -16.6113
head 5.51253 14.3613 -5.07242
rclavicle -1.31198e-014 0
rhumerus -38.5467 -16.6449 -75.1364
rradius 36.4885
rwrist 17.2784
rhand -21.4092 25.4991
rfingers 7.12502
rthumb 4.97925 -4.42235
lclavicle -1.31198e-014 0
lhumerus -29.1167 19.2476 79.8927
lradius 22.0562
lwrist -26.4801
lhand -12.7226 30.9367
lfingers 7.12502
lthumb 13.3606 60.4883
rfemur 4.2915 -0.583082 13.5671
rtibia 35.9694
rfoot 2.52 -7.91564
rtoes -24.3183
lfemur -20.8931 -7.5075 -20.7649
ltibia 23.6553
lfoot -4.03223 -1.56185
ltoes 3.28878
141
root -0.72463 18.4698 4.06954 2.47417 11.6393 0.450699
lowerback 2.96294 4.28426 -4.46248
upperback 2.29837 5.62031 -2.03404
thorax 0.487792 2.77535 0.246835
lowerneck 5.60115 20.0944 12.902
upperneck 6.48584 28.9029 -16.8398
head 5.40011 14.3923 -5.16576
rclavicle 1.07344e-014 -1.66979e-014
rhumerus -38.8924 -16.8796 -74.8028
rradius 36.5042
rwrist 17.222
rhand -21.6974 25.4463
rfingers 7.12502
rthumb 4.70093 -4.48153
lclavicle 1.07344e-014 -1.66979e-014
lhumerus -28.7924 20.7457 79.2513
lradius 20.9016
lwrist -28.2268
lhand -12.4164 30.8701
lfingers 7.12502
lthumb 13.6557 60.4022
rfemur 3.21748 -0.442673 13.5575
rtibia 38.1803
rfoot 4.99624 -7.95896
rtoes -19.1745
lfemur -20.3235 -7.21397 -20.8953
ltibia 23.8059
lfoot -4.52206 -2.01499
ltoes 4.18082
142
root -0.678433 18.4813 4.21817 2.52137 11.6084 0.809362
lowerback 2.73316 4.3839 -4.89744
upperback 2.42183 5.76554 -2.075
thorax 0.70118 2.83756 0.462219
lowerneck 5.6177 20.1942 12.881
upperneck 6.49592 29.0626 -16.9778
head 5.44353 14.4675 -5.17662
rclavicle 1.93815e-014 2.3059e-014
rhumerus -39.1017 -17.141 -74.5911
rradius 36.335
rwrist 17.1109
rhand -21.9039 25.2158
rfingers 7.12502
rthumb 4.5016 -4.71631
lclavicle 1.93815e-014 2.3059e-014
lhumerus -28.6545 21.7993 78.7383
lradius 20.4634
lwrist -29.5487
lhand -11.4381 31.5334
lfingers 7.12502
lthumb 14.5985 60.9997
rfemur 2.00969 -0.221767 13.1123
rtibia 40.4872
rfoot 7.19017 -7.73078
rtoes -18.3329
lfemur -19.7094 -6.74546 -21.4975
ltibia 23.7892
lfoot -4.97145 -2.46121
ltoes 3.76411
